<?xml version="1.0" encoding="iso-8859-1"?>
<!-- Generator: Adobe Illustrator 19.0.0, SVG Export Plug-In . SVG Version: 6.00 Build 0)  -->
<!-- License: CC0. Made by SVG Repo: https://www.svgrepo.com/svg/40012/school-bus -->
<svg version="1.1" id="Layer_1" xmlns="http://www.w3.org/2000/svg" xmlns:xlink="http://www.w3.org/1999/xlink" x="0px" y="0px"
	 viewBox="0 0 512 512" style="enable-background:new 0 0 512 512;" xml:space="preserve">
<path style="fill:#353185;" d="M366.315,9.57L256,63.731L145.1,9.57c-47.889,0-86.722,38.768-86.722,86.657L256,128.724
	l197.026-32.497C453.026,48.338,414.204,9.57,366.315,9.57z"/>
<rect x="145.097" y="9.57" style="fill:#FFB367;" width="221.215" height="108.322"/>
<g>
	<rect x="401.397" y="435" style="fill:#0E0A57;" width="69.488" height="67.43"/>
	<rect x="40.526" y="435" style="fill:#0E0A57;" width="69.478" height="67.43"/>
	<path style="fill:#0E0A57;" d="M22.206,112.475C9.961,112.475,0,122.437,0,134.681v65.947c0,12.245,9.961,22.206,22.206,22.206
		h3.975c4.488,0,8.124-3.637,8.124-8.124s0-85.987,0-85.987h67.704v-16.248C102.01,112.475,22.206,112.475,22.206,112.475z"/>
	<path style="fill:#0E0A57;" d="M489.794,112.475c12.245,0,22.206,9.961,22.206,22.206v65.947c0,12.245-9.961,22.206-22.206,22.206
		h-3.975c-4.488,0-8.124-3.637-8.124-8.124s0-85.987,0-85.987H409.99v-16.248C409.99,112.475,489.794,112.475,489.794,112.475z"/>
</g>
<g>
	<rect x="58.378" y="96.224" style="fill:#FFD117;" width="394.649" height="233.661"/>
	<path style="fill:#FFD117;" d="M29.694,326.086v119.75h97.219l21.664-148.444h-90.2C42.541,297.391,29.694,310.238,29.694,326.086z
		"/>
	<path style="fill:#FFD117;" d="M453.026,297.391h-90.2l21.664,148.444h97.23v-119.75
		C481.721,310.238,468.874,297.391,453.026,297.391z"/>
</g>
<path style="fill:#FFB367;" d="M384.491,445.835H126.913V297.391c0-28.716,23.278-51.994,51.994-51.994h153.589
	c28.716,0,51.994,23.278,51.994,51.994V445.835z"/>
<path style="fill:#0E0A57;" d="M325.986,61.023H186.014c-4.488,0-8.124-3.637-8.124-8.124s3.636-8.124,8.124-8.124h139.971
	c4.488,0,8.124,3.637,8.124,8.124S330.472,61.023,325.986,61.023z"/>
<g>
	<path style="fill:#FF7039;" d="M344.17,305.517H167.83c-4.488,0-8.124-3.637-8.124-8.124c0-4.487,3.636-8.124,8.124-8.124H344.17
		c4.488,0,8.124,3.637,8.124,8.124C352.294,301.879,348.657,305.517,344.17,305.517z"/>
	<path style="fill:#FF7039;" d="M344.17,338.013H167.83c-4.488,0-8.124-3.637-8.124-8.124c0-4.487,3.636-8.124,8.124-8.124H344.17
		c4.488,0,8.124,3.637,8.124,8.124C352.294,334.376,348.657,338.013,344.17,338.013z"/>
	<path style="fill:#FF7039;" d="M344.17,370.51H167.83c-4.488,0-8.124-3.637-8.124-8.124c0-4.487,3.636-8.124,8.124-8.124H344.17
		c4.488,0,8.124,3.637,8.124,8.124C352.294,366.872,348.657,370.51,344.17,370.51z"/>
</g>
<rect x="74.626" y="112.472" style="fill:#FFFFFF;" width="172.957" height="100.425"/>
<rect x="263.828" y="112.472" style="fill:#FFF0B2;" width="172.946" height="100.425"/>
<g>
	<circle style="fill:#FF7039;" cx="77.353" cy="362.381" r="18.956"/>
	<circle style="fill:#FF7039;" cx="434.056" cy="362.381" r="18.956"/>
</g>
</svg>
